<?xml version="1.0" encoding="utf-8"?>
<!-- Generator: Adobe Illustrator 27.5.0, SVG Export Plug-In . SVG Version: 6.00 Build 0)  -->
<svg version="1.1" xmlns="http://www.w3.org/2000/svg" xmlns:xlink="http://www.w3.org/1999/xlink" x="0px" y="0px"
	 viewBox="0 0 500 500" style="enable-background:new 0 0 500 500;" xml:space="preserve">
<g id="Background_Complete">
	<g>
		<rect x="416.779" y="398.494" style="fill:#EBEBEB;" width="33.122" height="0.25"/>
		<rect x="322.527" y="401.208" style="fill:#EBEBEB;" width="8.693" height="0.25"/>
		<rect x="396.586" y="389.208" style="fill:#EBEBEB;" width="19.192" height="0.25"/>
		<rect x="52.459" y="390.888" style="fill:#EBEBEB;" width="43.193" height="0.25"/>
		<rect x="104.556" y="390.888" style="fill:#EBEBEB;" width="6.333" height="0.25"/>
		<rect x="131.471" y="395.111" style="fill:#EBEBEB;" width="93.676" height="0.25"/>
		<g>
			<path style="fill:#EBEBEB;" d="M238.401,337.8H45.302c-3.147,0-5.708-2.561-5.708-5.708V60.66c0-3.147,2.561-5.708,5.708-5.708
				h193.099c3.146,0,5.707,2.561,5.707,5.708v271.432C244.108,335.239,241.547,337.8,238.401,337.8z M45.302,55.203
				c-3.01,0-5.458,2.448-5.458,5.458v271.432c0,3.01,2.448,5.458,5.458,5.458h193.099c3.009,0,5.457-2.448,5.457-5.458V60.66
				c0-3.009-2.448-5.458-5.457-5.458H45.302z"/>
			<path style="fill:#EBEBEB;" d="M454.698,337.8H261.599c-3.146,0-5.707-2.561-5.707-5.708V60.66c0-3.147,2.561-5.708,5.707-5.708
				h193.099c3.148,0,5.708,2.561,5.708,5.708v271.432C460.406,335.239,457.845,337.8,454.698,337.8z M261.599,55.203
				c-3.009,0-5.457,2.448-5.457,5.458v271.432c0,3.01,2.448,5.458,5.457,5.458h193.099c3.01,0,5.458-2.448,5.458-5.458V60.66
				c0-3.009-2.448-5.458-5.458-5.458H261.599z"/>
		</g>
		<rect y="382.398" style="fill:#EBEBEB;" width="500" height="0.25"/>
	</g>
	<g>
		<path style="fill:#E0E0E0;" d="M378.289,300.184c0,0,13.801-13.013,13.574-21.551c-0.227-8.538-8.624,11.481-8.819,7.264
			c-0.195-4.217,9.533-16.293,9.941-24.553c0.408-8.261-9.908,14.819-10.455,10.943c-0.547-3.877,9.454-21.041,9.371-27.044
			c-0.084-6.002-8.741,15.213-10.011,11.457c-1.269-3.756,7.212-17.773,5.044-28.264c-2.168-10.492-6.772,17.033-7.473,13.541
			c-0.7-3.492,5.154-21.422,1.009-28.587c-4.145-7.165-2.972,19.392-4.386,16.301c-1.414-3.091-2.274-18.308-7.546-23.492
			c-5.272-5.184,1.391,15.333-0.227,16.372c-1.618,1.039-9.144-14.238-11.168-11.339c-2.023,2.899,10.685,19.305,10.804,23.228
			c0.12,3.923-10.263-6.55-11.189-2.298c-0.926,4.251,14.455,10.942,15.239,15.009c0.784,4.067-12.8-3.206-12.739,0.982
			s12.932,6.435,13.704,11.196c0.772,4.761-12.609-3.443-11.878,2.144c0.731,5.587,9.738,4.487,10.764,9.999
			c1.026,5.512-9.295-0.772-8.904,4.462c0.391,5.234,10.702,5.81,11.781,9.803c1.079,3.992-9.85-1.867-9.542,2.374
			C365.491,292.371,376.143,292.913,378.289,300.184z"/>
		<g>
			<path style="fill:#F0F0F0;" d="M377.15,318.68c1.977-9.547,2.666-19.473,2.901-29.195c0.515-21.293-2.16-42.761-9.254-62.899
				c-0.517-1.468-2.91-0.941-2.386,0.547c7.029,19.953,9.703,41.168,9.193,62.267c-0.23,9.494-0.859,19.222-2.79,28.548
				C374.498,319.476,376.831,320.223,377.15,318.68L377.15,318.68z"/>
		</g>
		<path style="fill:#EBEBEB;" d="M382.325,304.578c0,0-9.586-18.356-6.527-30.798c3.059-12.441,5.303,16.521,6.731,9.586
			c1.428-6.935-4.487-20.396,1.02-30.39c5.507-9.994,0.408,18.764,4.079,12.442c3.671-6.323-0.612-22.436,4.487-28.554
			c5.099-6.119,1.632,13.257,4.079,10.198c2.448-3.059,1.836-17.337,5.711-20.6c3.875-3.263,0.408,13.665,2.448,10.402
			c2.04-3.263,6.731-18.153,13.257-19.988c6.527-1.836-4.283,9.178,0,8.158c4.283-1.02,14.073-3.263,14.889,1.224
			c0.816,4.487-20.6,9.382-23.047,14.889c-2.448,5.507,9.79-4.283,12.034-0.204c2.243,4.079-18.764,9.79-20.396,15.909
			s17.337-5.099,16.929,1.224c-0.408,6.323-21.824,7.546-22.844,13.053c-1.02,5.507,17.541-6.119,16.929-0.612
			c-0.612,5.507-19.172,9.79-20.396,15.705c-1.224,5.915,13.665-5.507,14.073-0.816
			C406.189,290.097,382.325,304.578,382.325,304.578z"/>
		<path style="fill:#EBEBEB;" d="M368.773,304.035c0,0,9.28-16.543,6.511-24.623c-2.769-8.08-4.798,13.534-6.244,9.568
			c-1.446-3.966,4.227-18.397,2.147-26.402s-5.025,17.104-6.706,13.568c-1.681-3.536,2.732-22.905,0.858-28.608
			c-1.874-5.703-3.794,17.13-6.128,13.926c-2.334-3.204,1.569-19.116-3.636-28.48c-5.205-9.364-1.371,18.279-3.083,15.155
			c-1.712-3.123-1.486-21.983-7.583-27.581s2.961,19.394,0.687,16.866c-2.273-2.527-7.643-16.791-14.224-20.162
			c-6.581-3.371,5.911,14.216,4.678,15.691s-12.983-10.854-14.047-7.482c-1.064,3.371,15.967,15.229,17.254,18.936
			c1.287,3.708-11.751-3.182-11.364,1.152c0.387,4.334,17.065,6.121,19.029,9.768c1.964,3.647-13.173,0.767-11.862,4.745
			c1.311,3.978,14.264,2.275,16.424,6.587c2.16,4.312-13.062,0.484-10.694,5.597c2.368,5.113,10.634,1.371,13.261,6.324
			c2.627,4.953-9.101,2.041-7.163,6.919c1.937,4.878,11.95,2.346,14.172,5.833c2.223,3.487-9.958,1.162-8.396,5.118
			C354.225,300.405,364.552,297.738,368.773,304.035z"/>
		<g>
			<path style="fill:#F0F0F0;" d="M373.215,322.025c-0.967-9.701-3.277-19.38-5.959-28.727
				c-5.874-20.473-14.844-40.161-27.634-57.257c-0.932-1.246-3.058-0.028-2.113,1.235c12.673,16.94,21.566,36.385,27.387,56.672
				c2.619,9.129,4.927,18.599,5.872,28.076C370.922,323.578,373.372,323.594,373.215,322.025L373.215,322.025z"/>
		</g>
		<g>
			<path style="fill:#F5F5F5;" d="M381.917,319.672c0.289-8.493,1.462-17.022,2.982-25.371c2.944-16.168,7.635-32.69,16.669-46.585
				c5.156-7.93,11.906-14.715,20.535-18.77c1.424-0.669,0.184-2.78-1.235-2.113c-15.435,7.252-24.692,22.704-30.553,38.089
				c-5.455,14.32-8.473,29.572-10.073,44.782c-0.348,3.31-0.659,6.639-0.772,9.967C379.416,321.247,381.864,321.245,381.917,319.672
				L381.917,319.672z"/>
		</g>
		<polygon style="fill:#EBEBEB;" points="401.905,314.923 351.323,314.923 357.034,369.03 357.034,382.083 396.194,382.083 
			396.194,369.03 		"/>
	</g>
	<g>
		<g>
			<g>
				<path style="fill:#E0E0E0;" d="M91.048,100.578c-0.152-0.693,0.28-1.368,1.012-1.529c0.732-0.161,1.404,0.253,1.551,0.924
					c0.156,0.712-0.256,1.384-1.008,1.549C91.871,101.683,91.201,101.271,91.048,100.578z M92.097,103.749l1.899-0.417l2.302,10.487
					l-1.899,0.417L92.097,103.749z"/>
				<path style="fill:#E0E0E0;" d="M62.517,114.641c-0.891-4.057,1.571-7.77,5.825-8.704c4.215-0.925,8.001,1.396,8.896,5.473
					c0.895,4.076-1.572,7.769-5.786,8.694C67.198,121.037,63.407,118.696,62.517,114.641z M75.259,111.844
					c-0.673-3.067-3.464-4.819-6.53-4.146c-3.107,0.682-4.907,3.441-4.234,6.509c0.673,3.066,3.463,4.818,6.57,4.136
					C74.133,117.669,75.933,114.91,75.259,111.844z"/>
				<path style="fill:#E0E0E0;" d="M80.18,116.363l0.394-1.704c1.233,0.704,3.141,0.989,4.922,0.598
					c2.394-0.526,3.219-1.681,2.954-2.888c-0.743-3.383-8.663,0.595-9.792-4.55c-0.469-2.136,0.793-4.322,4.434-5.121
					c1.622-0.356,3.4-0.29,4.721,0.249l-0.306,1.727c-1.376-0.507-2.82-0.563-4.047-0.294c-2.355,0.517-3.146,1.727-2.881,2.934
					c0.743,3.383,8.667-0.575,9.783,4.509c0.465,2.117-0.837,4.311-4.497,5.115C83.748,117.404,81.515,117.148,80.18,116.363z"/>
			</g>
			<g>
				<g>
					<path style="fill:#E0E0E0;" d="M201.081,110.859c-0.271-0.512-0.564-1.012-0.878-1.5c-2.584-4.007-6.593-7.118-11.55-8.491
						c-4.689-1.299-9.45-0.828-13.571,1.012c-0.526,0.234-1.044,0.492-1.548,0.77c-4.572,2.527-8.164,6.821-9.669,12.254
						l38.823,10.753C204.118,120.494,203.403,115.246,201.081,110.859z M176.658,112.415l-3.119-0.864l0.864-3.119l3.119,0.864
						L176.658,112.415z M195.879,117.739l-3.119-0.864l0.864-3.119l3.119,0.864L195.879,117.739z"/>
				</g>
				<polygon style="fill:#E0E0E0;" points="198.323,114.838 197.141,113.394 208.762,106.297 				"/>
				<polygon style="fill:#E0E0E0;" points="173.256,107.895 175.012,107.265 168.698,95.2 				"/>
			</g>
			<g>
				<g>
					<rect x="109.194" y="71.438" style="fill:#E0E0E0;" width="20.677" height="11.563"/>
					<rect x="131.778" y="71.438" style="fill:#E0E0E0;" width="20.678" height="11.563"/>
				</g>
				<g>
					<rect x="109.194" y="84.778" style="fill:#E0E0E0;" width="20.677" height="11.563"/>
					<rect x="131.778" y="84.778" style="fill:#E0E0E0;" width="20.678" height="11.563"/>
				</g>
			</g>
		</g>
		<g>
			<path style="fill:#E0E0E0;" d="M414.686,104.801l-13.643-6.444c-4.287-2.025-6.121-7.142-4.096-11.429l6.444-13.643
				c2.025-4.287,7.142-6.121,11.429-4.096l13.643,6.444c4.287,2.025,6.121,7.142,4.096,11.429l-6.444,13.643
				C424.09,104.992,418.974,106.826,414.686,104.801z"/>
			<g>
				<g>
					<g>
						<path style="fill:#F5F5F5;" d="M423.095,85.24l-6.092,12.959c-0.078,0.167-0.277,0.239-0.444,0.16l-11.983-5.633
							c-0.167-0.078-0.239-0.277-0.16-0.444l7.924-16.856c0.078-0.167,0.277-0.238,0.444-0.16l8.074,3.796L423.095,85.24z"/>
					</g>
					<path style="fill:#FFFFFF;" d="M420.869,79.055l-1.838,3.909c-0.078,0.167-0.007,0.366,0.16,0.444l3.897,1.832L420.869,79.055z
						"/>
					<g>
						<path style="fill:#E0E0E0;" d="M420.571,86.88l-9.682-4.516c-0.151-0.07-0.33-0.005-0.4,0.146l-0.041,0.089
							c-0.07,0.151-0.005,0.33,0.146,0.4l9.682,4.516c0.151,0.07,0.33,0.005,0.4-0.146l0.041-0.089
							C420.787,87.13,420.722,86.95,420.571,86.88z"/>
						<path style="fill:#E0E0E0;" d="M419.352,89.483l-9.682-4.516c-0.151-0.07-0.33-0.005-0.4,0.146l-0.041,0.089
							c-0.07,0.151-0.005,0.33,0.146,0.4l9.682,4.516c0.151,0.07,0.33,0.005,0.4-0.146l0.041-0.089
							C419.568,89.733,419.502,89.554,419.352,89.483z"/>
						<path style="fill:#E0E0E0;" d="M418.132,92.086l-9.682-4.516c-0.151-0.07-0.33-0.005-0.4,0.146l-0.041,0.088
							c-0.07,0.151-0.005,0.33,0.146,0.4l9.682,4.516c0.151,0.07,0.33,0.005,0.4-0.146l0.041-0.089
							C418.348,92.336,418.283,92.157,418.132,92.086z"/>
						<path style="fill:#E0E0E0;" d="M411.923,92.333l-4.691-2.159c-0.151-0.07-0.33-0.005-0.4,0.146l-0.041,0.089
							c-0.07,0.151-0.005,0.33,0.146,0.4l4.691,2.159c0.151,0.07,0.33,0.005,0.4-0.146l0.041-0.088
							C412.138,92.582,412.073,92.403,411.923,92.333z"/>
					</g>
				</g>
			</g>
		</g>
		<g>
			<g>
				<g>
					<g>
						<g>
							<g>
								<path style="fill:#E0E0E0;" d="M265.647,122.959l-14.653,3.508c-4.605,1.103-9.231-1.736-10.334-6.341l-3.508-14.653
									c-1.103-4.604,1.736-9.231,6.341-10.333l14.653-3.508c4.605-1.103,9.231,1.736,10.333,6.341l3.509,14.653
									C273.09,117.23,270.251,121.857,265.647,122.959z"/>
							</g>
						</g>
						<path style="fill:#FFFFFF;" d="M256.885,103.225l1.056,4.41c0.438,1.827-0.689,3.663-2.516,4.1l-4.211,1.008l-3.659,5.963
							l-1.152-4.811c-1.827,0.437-3.663-0.689-4.1-2.516l-1.056-4.41c-0.438-1.827,0.689-3.663,2.516-4.1l9.021-2.16
							C254.612,100.272,256.448,101.398,256.885,103.225z"/>
						<path style="fill:#FAFAFA;" d="M247.396,119.711l-1.285-5.366c-1.901,0.254-3.73-0.971-4.186-2.876l-1.056-4.41
							c-0.487-2.033,0.771-4.082,2.804-4.569l9.021-2.16c2.033-0.487,4.083,0.771,4.569,2.804l1.056,4.41
							c0.487,2.033-0.771,4.083-2.804,4.57l-4.054,0.971L247.396,119.711z M243.854,103.248c-1.615,0.387-2.615,2.016-2.228,3.631
							l1.056,4.41c0.387,1.616,2.015,2.615,3.631,2.228l0.379-0.091l1.024,4.275l3.251-5.299l4.367-1.046
							c1.615-0.387,2.615-2.016,2.228-3.631l-1.056-4.41c-0.387-1.615-2.015-2.615-3.631-2.228L243.854,103.248z"/>
					</g>
				</g>
				<g>
					<g>
						<path style="fill:#FFFFFF;" d="M267.099,107.816l0.812,3.392c0.336,1.405-0.531,2.817-1.936,3.154l0.886,3.701l-4.587-2.815
							l-3.239,0.775c-1.405,0.337-2.817-0.53-3.153-1.935l-0.812-3.393c-0.336-1.405,0.53-2.818,1.935-3.154l6.94-1.662
							C265.349,105.544,266.762,106.411,267.099,107.816z"/>
						<path style="fill:#FAFAFA;" d="M267.459,118.886l-5.25-3.222l-3.082,0.738c-1.612,0.386-3.237-0.611-3.623-2.223l-0.812-3.393
							c-0.386-1.612,0.611-3.238,2.223-3.623l6.94-1.661c1.612-0.386,3.238,0.611,3.624,2.224l0.812,3.392
							c0.355,1.483-0.462,2.978-1.851,3.507L267.459,118.886z M257.096,107.921c-1.194,0.286-1.933,1.49-1.647,2.685l0.812,3.393
							c0.286,1.194,1.49,1.933,2.684,1.647l3.395-0.813l3.923,2.408l-0.758-3.165l0.379-0.091c1.195-0.286,1.934-1.49,1.648-2.684
							l-0.812-3.393c-0.286-1.195-1.49-1.934-2.685-1.648L257.096,107.921z"/>
					</g>
				</g>
				<g>
					<g>
						<path style="fill:#E0E0E0;" d="M253.454,104.341l-8.166,1.955c-0.209,0.05-0.419-0.079-0.469-0.288
							c-0.05-0.209,0.079-0.419,0.288-0.469l8.166-1.955c0.209-0.05,0.419,0.079,0.469,0.288
							C253.792,104.081,253.663,104.291,253.454,104.341z"/>
					</g>
					<g>
						<path style="fill:#E0E0E0;" d="M253.91,106.246l-8.166,1.955c-0.209,0.05-0.419-0.079-0.469-0.288
							c-0.05-0.209,0.079-0.419,0.288-0.469l8.166-1.955c0.209-0.05,0.419,0.079,0.469,0.288
							C254.248,105.986,254.119,106.196,253.91,106.246z"/>
					</g>
					<g>
						<path style="fill:#E0E0E0;" d="M252.095,108.694l-5.895,1.411c-0.209,0.05-0.419-0.079-0.469-0.288
							c-0.05-0.209,0.079-0.419,0.288-0.469l5.895-1.411c0.209-0.05,0.419,0.079,0.469,0.288
							C252.433,108.434,252.304,108.644,252.095,108.694z"/>
					</g>
				</g>
			</g>
		</g>
		<g>
			<g>
				<g>
					<path style="fill:#E0E0E0;" d="M428.139,161.643l-14.608-3.778c-4.59-1.187-7.349-5.87-6.162-10.461l3.778-14.608
						c1.187-4.59,5.87-7.349,10.461-6.162l14.608,3.778c4.59,1.187,7.349,5.87,6.162,10.461l-3.778,14.608
						C437.412,160.071,432.729,162.83,428.139,161.643z"/>
				</g>
			</g>
			<g>
				<path style="fill:#FAFAFA;" d="M436.17,149.268c-0.087,0.336-0.417,1.512-0.546,1.826l-23.832-6.163
					c0.028-0.174,0.284-1.198,0.329-1.373c0.721-2.787,3.44-4.527,6.226-4.085c0.015-0.065,0.031-0.132,0.048-0.198
					c0.898-3.471,4.438-5.557,7.909-4.659c2.81,0.727,4.71,3.182,4.858,5.933c0.376,0.106,0.74,0.242,1.085,0.402
					C435.331,142.382,437.052,145.856,436.17,149.268z"/>
			</g>
		</g>
	</g>
</g>
<g id="Background_Simple" style="display:none;">
	<g style="display:inline;">
		<path style="fill:#407BFF;" d="M107.099,296.34c-37.726-0.769-63.483-72.311-43.86-121.65
			C89.979,107.453,214.66,68.223,292.017,68.32c40.595,0.051,104.98,0,140.996,80.542c19.072,42.651,16.448,165.296-44.284,181.561
			c-96.057,25.725-95.922-70.283-134.025-74.626C200.412,249.607,191.908,298.069,107.099,296.34z"/>
		<path style="opacity:0.9;fill:#FFFFFF;" d="M107.099,296.34c-37.726-0.769-63.483-72.311-43.86-121.65
			C89.979,107.453,214.66,68.223,292.017,68.32c40.595,0.051,104.98,0,140.996,80.542c19.072,42.651,16.448,165.296-44.284,181.561
			c-96.057,25.725-95.922-70.283-134.025-74.626C200.412,249.607,191.908,298.069,107.099,296.34z"/>
	</g>
</g>
<g id="Shadow">
	<ellipse id="_x3C_Path_x3E__1_" style="fill:#F5F5F5;" cx="250" cy="412.391" rx="193.889" ry="11.323"/>
</g>
<g id="Arrow">
	<g>
		<g>
			<path style="fill:#263238;" d="M402.182,136.33l-19.56,20.87l-19.56-20.87h8.79v-16.57c0-7.5-5.43-13.59-12.11-13.59h-32.06
				c-6.68,0-12.11,6.09-12.11,13.59v19.06h-20v-19.06c0-18.52,14.41-33.59,32.11-33.59h32.06c17.71,0,32.11,15.07,32.11,33.59v16.57
				H402.182z"/>
		</g>
	</g>
</g>
<g id="Plant">
	<g>
		<g>
			<path d="M290.313,375.88c-1.091,0.1-2.181,0.201-3.272,0.301c-0.484,0.045-0.481-0.711,0-0.755
				c1.091-0.1,2.181-0.201,3.272-0.301C290.797,375.081,290.794,375.836,290.313,375.88L290.313,375.88z"/>
		</g>
		<g>
			<path d="M290.504,386.542c0.643,0.484,1.286,0.967,1.929,1.451c0.384,0.289,0.008,0.944-0.381,0.652
				c-0.643-0.484-1.286-0.967-1.929-1.451C289.739,386.906,290.115,386.25,290.504,386.542L290.504,386.542z"/>
		</g>
		<g>
			<path d="M295.322,382.44c1.066,0.219,2.132,0.437,3.199,0.655c0.476,0.098,0.274,0.826-0.201,0.728
				c-1.066-0.219-2.132-0.437-3.199-0.656C294.646,383.071,294.847,382.343,295.322,382.44L295.322,382.44z"/>
		</g>
		<g>
			<path d="M292.536,378.879c-0.528-0.785-1.056-1.569-1.584-2.354c-0.272-0.404,0.382-0.783,0.652-0.381
				c0.528,0.785,1.056,1.569,1.584,2.354C293.46,378.902,292.806,379.28,292.536,378.879L292.536,378.879z"/>
		</g>
		<g>
			<path d="M287.142,382.152c0.857,0.192,1.713,0.384,2.57,0.577c0.474,0.106,0.273,0.835-0.201,0.728
				c-0.856-0.192-1.713-0.385-2.569-0.577C286.467,382.774,286.668,382.046,287.142,382.152L287.142,382.152z"/>
		</g>
		<g>
			<path d="M265.123,385.306c-1.066,0.122-2.132,0.245-3.199,0.367c-0.482,0.055-0.478-0.7,0-0.755
				c1.066-0.122,2.132-0.245,3.199-0.367C265.604,384.495,265.6,385.251,265.123,385.306L265.123,385.306z"/>
		</g>
		<g>
			<path d="M288.999,366.885c-0.799,0.372-1.598,0.745-2.396,1.117c-0.438,0.204-0.822-0.447-0.381-0.652
				c0.799-0.372,1.598-0.745,2.396-1.117C289.056,366.029,289.44,366.68,288.999,366.885L288.999,366.885z"/>
		</g>
		<g>
			<path d="M282.738,358.862c-0.402,1.049-0.804,2.098-1.206,3.146c-0.172,0.449-0.902,0.254-0.728-0.201
				c0.402-1.049,0.804-2.098,1.206-3.146C282.183,358.212,282.913,358.407,282.738,358.862L282.738,358.862z"/>
		</g>
		<g>
			<path d="M264.791,381.903c-0.956,0-1.911,0-2.867,0c-0.486,0-0.487-0.755,0-0.755c0.956,0,1.911,0,2.867,0
				C265.277,381.148,265.277,381.903,264.791,381.903L264.791,381.903z"/>
		</g>
		<g>
			<path d="M264.69,374.438c-0.798-0.175-1.597-0.35-2.395-0.524c-0.474-0.104-0.274-0.832,0.201-0.728
				c0.798,0.175,1.597,0.35,2.395,0.524C265.366,373.814,265.165,374.542,264.69,374.438L264.69,374.438z"/>
		</g>
		<g>
			<path d="M273.987,360.698c-0.245-0.839-0.489-1.678-0.734-2.517c-0.136-0.467,0.592-0.667,0.728-0.201
				c0.245,0.839,0.489,1.678,0.734,2.517C274.852,360.964,274.124,361.164,273.987,360.698L273.987,360.698z"/>
		</g>
		<g>
			<path style="fill:#407BFF;" d="M284.879,391.171c0,0,17.285-7.219,12.062-13.377c-4.979-5.87-7.166,7.739-12.062,9.493
				C279.982,389.042,284.879,391.171,284.879,391.171z"/>
			<path style="opacity:0.1;fill:#FFFFFF;" d="M284.879,391.171c0,0,17.285-7.219,12.062-13.377
				c-4.979-5.87-7.166,7.739-12.062,9.493C279.982,389.042,284.879,391.171,284.879,391.171z"/>
		</g>
		<path style="fill:#407BFF;" d="M285.53,394.921c0,0,11.746-35.771-9.229-35.212c-20.975,0.559-9.509,37.367-9.509,37.367
			L285.53,394.921z"/>
		<path style="opacity:0.3;fill:#FFFFFF;" d="M285.53,394.921c0,0,11.746-35.771-9.229-35.212
			c-20.975,0.559-9.509,37.367-9.509,37.367L285.53,394.921z"/>
		<path style="opacity:0.2;" d="M266.793,397.076c0,0-3.541-11.374-3.085-21.573c0.826,16.56,15.227,15.668,15.227,15.668
			l0.993,4.394L266.793,397.076z"/>
		<path style="fill:#263238;" d="M295.878,389.837l-2.686,21.761c-0.382,3.097-3.014,5.424-6.135,5.424h-17.742
			c-3.121,0-5.752-2.327-6.135-5.424l-2.686-21.761H295.878z"/>
		<path style="fill:#263238;" d="M295.878,389.837l-2.686,21.761c-0.382,3.097-3.014,5.424-6.135,5.424h-17.742
			c-3.121,0-5.752-2.327-6.135-5.424l-2.686-21.761H295.878z"/>
		<path style="opacity:0.2;fill:#FFFFFF;" d="M295.878,389.837l-2.686,21.761c-0.382,3.097-3.014,5.424-6.135,5.424h-17.742
			c-3.121,0-5.752-2.327-6.135-5.424l-2.686-21.761H295.878z"/>
		<g style="opacity:0.2;">
			<path style="fill:#FFFFFF;" d="M283.385,389.185c1.406-8.839,1.179-24.081-10.188-25.653c-0.799-0.11-0.459-1.323,0.335-1.214
				c12.173,1.684,12.567,17.765,11.067,27.201C284.472,390.317,283.259,389.978,283.385,389.185L283.385,389.185z"/>
		</g>
		<g style="opacity:0.5;">
			<path style="fill:#FFFFFF;" d="M278.888,388.401c0.62-7.141-0.813-15.256-5.639-20.748c-0.533-0.606,0.354-1.5,0.89-0.89
				c5.044,5.741,6.657,14.152,6.007,21.638C280.077,389.202,278.818,389.21,278.888,388.401L278.888,388.401z"/>
		</g>
		<g style="opacity:0.2;">
			<path style="fill:#FFFFFF;" d="M273.877,388.569c-1.464-5.938-2.503-11.994-3.417-18.037c-0.12-0.792,1.093-1.134,1.214-0.335
				c0.914,6.043,1.953,12.098,3.417,18.037C275.284,389.021,274.071,389.356,273.877,388.569L273.877,388.569z"/>
		</g>
		<g style="opacity:0.5;">
			<path style="fill:#FFFFFF;" d="M268.283,388.569c-1.99-5.402-2.746-11.403-2.372-17.124c0.053-0.804,1.311-0.81,1.258,0
				c-0.368,5.63,0.369,11.474,2.327,16.789C269.777,388.995,268.561,389.324,268.283,388.569L268.283,388.569z"/>
		</g>
		<g style="opacity:0.3;">
			<path style="fill:#FFFFFF;" d="M288.491,386.992c2.607-1.5,6.072-3.866,6.78-6.965c0.18-0.789,1.394-0.455,1.214,0.335
				c-0.785,3.439-4.463,6.052-7.358,7.717C288.423,388.483,287.788,387.396,288.491,386.992L288.491,386.992z"/>
		</g>
		<g style="opacity:0.2;">
			<path style="fill:#FFFFFF;" d="M294.254,380.092c-0.979,1.363-1.958,2.727-2.937,4.09c-0.468,0.652-1.56,0.024-1.087-0.635
				c0.979-1.363,1.958-2.727,2.937-4.09C293.635,378.805,294.727,379.433,294.254,380.092L294.254,380.092z"/>
		</g>
		<g>
			<path style="fill:#407BFF;" d="M269.449,362.925c0,0,2.64-1.113,2.727-1.945c0.126-1.208-2.082-3.734-3.286-3.578
				c-1.003,0.13-1.888,3.578-1.888,3.578s-0.883-3.464-1.888-3.578c-1.331-0.152-3.693,2.729-3.502,4.055
				c0.112,0.774,2.631,1.695,2.631,1.695s-2.758,0.035-3.114,0.752c-0.506,1.018,0.701,3.956,1.818,4.171
				c0.87,0.167,2.517-2.493,2.517-2.493s-1.507,2.469-1.049,3.166c0.521,0.792,3.127,1.021,3.775,0.33
				c0.605-0.645-0.534-3.496-0.534-3.496s1.437,2.509,2.282,2.493c1.136-0.022,3.17-2.359,2.936-3.471
				C272.68,363.669,269.449,362.925,269.449,362.925z"/>
		</g>
		<g>
			<path d="M289.611,379.954c-0.857-0.066-1.713-0.131-2.569-0.197c-0.482-0.037-0.486-0.792,0-0.755
				c0.856,0.065,1.713,0.131,2.569,0.197C290.092,379.236,290.096,379.991,289.611,379.954L289.611,379.954z"/>
		</g>
		<g>
			<path d="M289.973,371.204c-0.822,0.186-1.643,0.373-2.465,0.559c-0.473,0.107-0.675-0.62-0.201-0.728
				c0.822-0.187,1.643-0.373,2.465-0.559C290.246,370.368,290.448,371.096,289.973,371.204L289.973,371.204z"/>
		</g>
		<g>
			<path d="M286.679,362.175c-0.699,0.752-1.398,1.503-2.098,2.255c-0.332,0.357-0.865-0.178-0.534-0.534
				c0.699-0.752,1.398-1.503,2.098-2.255C286.477,361.285,287.01,361.819,286.679,362.175L286.679,362.175z"/>
		</g>
		<g>
			<path d="M265.919,388.531c-1.141,0.276-2.282,0.553-3.423,0.829c-0.472,0.114-0.674-0.614-0.201-0.728
				c1.141-0.276,2.282-0.552,3.423-0.829C266.191,387.689,266.392,388.417,265.919,388.531L265.919,388.531z"/>
		</g>
		<g>
			<path d="M264.288,378.146c-0.821-0.205-1.643-0.41-2.465-0.615c-0.471-0.117-0.272-0.846,0.201-0.728
				c0.822,0.205,1.643,0.41,2.465,0.615C264.96,377.535,264.76,378.264,264.288,378.146L264.288,378.146z"/>
		</g>
		<g>
			<path d="M264.69,371.484c-0.798-0.169-1.597-0.338-2.395-0.507c-0.475-0.101-0.274-0.829,0.201-0.728
				c0.798,0.169,1.597,0.338,2.395,0.507C265.366,370.856,265.165,371.584,264.69,371.484L264.69,371.484z"/>
		</g>
		<g>
			<path d="M277.435,360.597c0-0.752,0-1.503,0-2.255c0-0.486,0.755-0.487,0.755,0c0,0.752,0,1.503,0,2.255
				C278.19,361.083,277.435,361.084,277.435,360.597L277.435,360.597z"/>
		</g>
		<g>
			<path d="M286.775,385.351c0.711,0.191,1.423,0.383,2.134,0.575c0.469,0.126,0.27,0.855-0.201,0.728
				c-0.711-0.191-1.423-0.383-2.134-0.575C286.105,385.953,286.304,385.224,286.775,385.351L286.775,385.351z"/>
		</g>
		<g>
			<path d="M286.25,387.955c0.725,0.175,1.451,0.35,2.176,0.525c0.472,0.114,0.272,0.842-0.201,0.728
				c-0.725-0.175-1.451-0.35-2.176-0.525C285.577,388.57,285.777,387.841,286.25,387.955L286.25,387.955z"/>
		</g>
		<g>
			<path d="M293.052,384.786c0.874,0.481,1.748,0.961,2.622,1.442c0.426,0.234,0.045,0.887-0.381,0.652
				c-0.874-0.481-1.748-0.961-2.622-1.442C292.246,385.203,292.626,384.551,293.052,384.786L293.052,384.786z"/>
		</g>
		<g>
			<path d="M295.922,379.592c0.926-0.51,1.853-1.019,2.779-1.529c0.426-0.234,0.807,0.417,0.381,0.652
				c-0.926,0.51-1.853,1.019-2.779,1.529C295.878,380.478,295.496,379.827,295.922,379.592L295.922,379.592z"/>
		</g>
		<g>
			<path d="M294.491,377.374c0.21-1.046,0.419-2.093,0.629-3.139c0.096-0.476,0.823-0.275,0.728,0.201
				c-0.21,1.046-0.419,2.093-0.629,3.139C295.123,378.051,294.395,377.85,294.491,377.374L294.491,377.374z"/>
		</g>
		<g>
			<path d="M291.011,380.423c-0.468-0.49-0.936-0.979-1.405-1.468c-0.336-0.351,0.197-0.886,0.534-0.534
				c0.468,0.489,0.936,0.979,1.405,1.468C291.881,380.241,291.348,380.775,291.011,380.423L291.011,380.423z"/>
		</g>
	</g>
</g>
<g id="Device_1">
	<g>
		<g>
			<g>
				<path style="fill:#263238;" d="M133.423,410.217v3.095c0,1.603,1.3,2.903,2.903,2.903h111.011c1.477,0,2.674-1.197,2.674-2.674
					v-2.98c0-1.477-1.197-2.674-2.674-2.674H219.73c-3.136,0-5.515-2.826-4.981-5.916l9.683-55.947H161.38l-26.998,59.74
					C133.75,407.164,133.423,408.682,133.423,410.217z"/>
				<path style="opacity:0.2;fill:#FFFFFF;" d="M250.009,410.556v2.992c0,1.48-1.188,2.668-2.668,2.668H136.331
					c-1.604,0-2.915-1.311-2.915-2.899v-3.1c0-0.817,0.092-1.635,0.277-2.437c0.169-0.694,0.386-1.372,0.678-2.02l27.004-59.73
					h63.062l-9.686,55.937c-0.061,0.339-0.092,0.663-0.077,0.987c0.046,2.344,1.742,4.364,4.009,4.827
					c0.339,0.077,0.679,0.108,1.049,0.108h27.606C248.821,407.888,250.009,409.091,250.009,410.556z"/>
				<g>
					<g>
						<path style="fill:#263238;" d="M130.813,405.764l26.998-59.74h3.569l-26.998,59.74c-0.632,1.399-0.96,2.917-0.96,4.453v3.095
							c0,1.603,1.3,2.903,2.903,2.903h-3.569c-1.603,0-2.903-1.299-2.903-2.903v-3.095
							C129.854,408.682,130.181,407.164,130.813,405.764z"/>
					</g>
				</g>
				<polygon style="opacity:0.2;" points="161.38,346.025 224.433,346.025 221.962,360.301 154.928,360.301 				"/>
			</g>
			<path style="opacity:0.3;fill:#FFFFFF;" d="M152.604,410.577v2.842c0,1.545,1.252,2.797,2.797,2.797h91.938
				c1.476,0,2.673-1.197,2.673-2.673v-2.98c0-1.476-1.197-2.673-2.672-2.673h-27.613c-0.357,0-0.702-0.037-1.034-0.111h-63.292
				C153.857,407.779,152.604,409.032,152.604,410.577z"/>
			<path style="opacity:0.1;" d="M133.701,407.779h84.992c-2.279-0.456-3.966-2.476-4.015-4.828h-78.809L133.701,407.779z"/>
		</g>
		<g>
			<g>
				<g>
					<path style="fill:#407BFF;" d="M64.236,352.295H333.26c5.432,0,9.835-4.404,9.835-9.835V148.064
						c0-5.432-4.403-9.835-9.835-9.835h-20.539H64.236c-5.432,0-9.835,4.403-9.835,9.835V342.46
						C54.401,347.892,58.804,352.295,64.236,352.295z"/>
				</g>
				<path style="fill:#407BFF;" d="M343.095,321.438l0,21.022c0,5.432-4.403,9.835-9.835,9.835H64.236
					c-5.432,0-9.835-4.403-9.835-9.835l0-21.022H343.095z"/>
				<path style="opacity:0.6;fill:#FFFFFF;" d="M343.095,321.438l0,21.022c0,5.432-4.403,9.835-9.835,9.835H64.236
					c-5.432,0-9.835-4.403-9.835-9.835l0-21.022H343.095z"/>
			</g>
			<path style="fill:#407BFF;" d="M64.414,315.501h268.666c2.945,0,5.333-2.387,5.333-5.333V149.499
				c0-2.945-2.388-5.333-5.333-5.333H64.415c-2.945,0-5.333,2.388-5.333,5.333l0,160.669
				C59.082,313.113,61.469,315.501,64.414,315.501z"/>
			<path style="opacity:0.8;fill:#FFFFFF;" d="M64.414,315.501h268.666c2.945,0,5.333-2.387,5.333-5.333V149.499
				c0-2.945-2.388-5.333-5.333-5.333H64.415c-2.945,0-5.333,2.388-5.333,5.333l0,160.669
				C59.082,313.113,61.469,315.501,64.414,315.501z"/>
			<g>
				<g>
					<rect x="79.129" y="152.863" style="opacity:0.2;" width="49.311" height="33.948"/>
					<rect x="79.129" y="152.863" style="fill:#407BFF;" width="49.311" height="3.11"/>
				</g>
				<g>
					<path style="fill:#FFFFFF;" d="M88.164,171.638l8.062,4.468c0.404,0.227,0.674,0.43,0.807,0.607
						c0.134,0.178,0.2,0.405,0.2,0.68c0,0.348-0.125,0.65-0.376,0.905c-0.251,0.255-0.543,0.382-0.874,0.382
						c-0.218,0-0.546-0.121-0.983-0.364l-10.4-5.784c-0.701-0.39-0.701-1.398,0-1.788l10.4-5.784
						c0.437-0.235,0.761-0.352,0.971-0.352c0.34,0,0.635,0.126,0.887,0.376c0.251,0.251,0.376,0.551,0.376,0.898
						c0,0.275-0.067,0.502-0.2,0.68c-0.134,0.178-0.403,0.381-0.807,0.607L88.164,171.638z"/>
					<path style="fill:#FFFFFF;" d="M108.907,163.309l-7.977,17.192c-0.203,0.429-0.385,0.708-0.547,0.838
						c-0.211,0.17-0.465,0.255-0.765,0.255c-0.34,0-0.633-0.121-0.881-0.365c-0.247-0.243-0.37-0.518-0.37-0.825
						c0-0.218,0.097-0.538,0.291-0.959l8.001-17.18c0.202-0.429,0.381-0.708,0.534-0.838c0.219-0.17,0.474-0.255,0.765-0.255
						c0.34,0,0.631,0.119,0.874,0.358c0.243,0.239,0.365,0.512,0.365,0.82C109.199,162.568,109.102,162.888,108.907,163.309z"/>
					<path style="fill:#FFFFFF;" d="M118.938,171.638l-8.062-4.468c-0.405-0.226-0.674-0.429-0.807-0.607
						c-0.134-0.178-0.2-0.405-0.2-0.68c0-0.348,0.125-0.647,0.376-0.898c0.251-0.251,0.546-0.376,0.886-0.376
						c0.211,0,0.535,0.117,0.972,0.352l10.4,5.784c0.701,0.39,0.701,1.398,0,1.788l-10.4,5.784
						c-0.437,0.243-0.761,0.364-0.972,0.364c-0.344,0-0.643-0.129-0.895-0.385c-0.238-0.242-0.367-0.562-0.367-0.902
						c0-0.275,0.067-0.501,0.2-0.679c0.133-0.178,0.402-0.38,0.807-0.607L118.938,171.638z"/>
				</g>
			</g>
			<g>
				<path style="fill:#407BFF;" d="M58.287,138.228h5.948c-5.432,0-9.835,4.404-9.835,9.835V342.46c0,5.432,4.403,9.835,9.835,9.835
					h-5.948c-5.432,0-9.835-4.403-9.835-9.835V148.064C48.452,142.632,52.855,138.228,58.287,138.228z"/>
				<path style="fill:#263238;" d="M58.287,138.228h5.948c-5.432,0-9.835,4.404-9.835,9.835V342.46c0,5.432,4.403,9.835,9.835,9.835
					h-5.948c-5.432,0-9.835-4.403-9.835-9.835V148.064C48.452,142.632,52.855,138.228,58.287,138.228z"/>
			</g>
			<g style="opacity:0.2;">
				<g>
					<path d="M173.395,164.529L173.395,164.529c-3.161,0-5.724-2.563-5.724-5.724v0c0-3.161,2.563-5.724,5.724-5.724l0,0
						c3.161,0,5.724,2.563,5.724,5.724v0C179.12,161.966,176.557,164.529,173.395,164.529z"/>
					<path d="M173.395,194.169L173.395,194.169c-3.161,0-5.724-2.563-5.724-5.724v0c0-3.161,2.563-5.724,5.724-5.724l0,0
						c3.161,0,5.724,2.563,5.724,5.724v0C179.12,191.606,176.557,194.169,173.395,194.169z"/>
					<path d="M173.395,223.808L173.395,223.808c-3.161,0-5.724-2.563-5.724-5.724v0c0-3.161,2.563-5.724,5.724-5.724l0,0
						c3.161,0,5.724,2.563,5.724,5.724v0C179.12,221.245,176.557,223.808,173.395,223.808z"/>
					<path d="M173.395,251.744L173.395,251.744c-3.161,0-5.724-2.563-5.724-5.724v0c0-3.161,2.563-5.724,5.724-5.724l0,0
						c3.161,0,5.724,2.563,5.724,5.724v0C179.12,249.181,176.557,251.744,173.395,251.744z"/>
					<path d="M173.395,281.383L173.395,281.383c-3.161,0-5.724-2.563-5.724-5.724v0c0-3.161,2.563-5.724,5.724-5.724l0,0
						c3.161,0,5.724,2.563,5.724,5.724v0C179.12,278.82,176.557,281.383,173.395,281.383z"/>
					<path d="M173.395,311.023L173.395,311.023c-3.161,0-5.724-2.563-5.724-5.724v0c0-3.161,2.563-5.724,5.724-5.724l0,0
						c3.161,0,5.724,2.563,5.724,5.724v0C179.12,308.46,176.557,311.023,173.395,311.023z"/>
				</g>
				<g>
					<rect x="190" y="153.956" width="45.641" height="3.43"/>
				</g>
				<g>
					<rect x="200.637" y="183.673" width="16.257" height="3.43"/>
				</g>
				<g>
					<rect x="271.395" y="217.008" width="16.258" height="3.43"/>
				</g>
				<g>
					<rect x="200.637" y="243.466" width="16.257" height="3.43"/>
				</g>
				<g>
					<rect x="224.082" y="243.466" width="16.257" height="3.43"/>
				</g>
				<g>
					<rect x="224.082" y="217.008" width="41.542" height="3.43"/>
				</g>
				<g>
					<rect x="248.281" y="243.466" width="27.35" height="3.43"/>
				</g>
				<g>
					<rect x="248.187" y="307.013" width="16.258" height="3.43"/>
				</g>
				<g>
					<rect x="271.629" y="307.013" width="16.257" height="3.43"/>
				</g>
				<g>
					<rect x="295.831" y="307.013" width="9.083" height="3.43"/>
				</g>
				<g>
					<rect x="225.044" y="183.673" width="50.588" height="3.43"/>
				</g>
				<g>
					<rect x="224.082" y="274.422" width="16.257" height="3.43"/>
				</g>
				<g>
					<rect x="245.772" y="274.422" width="9.398" height="3.43"/>
				</g>
				<g>
					<rect x="262.358" y="274.422" width="26.546" height="3.43"/>
				</g>
			</g>
			<g>
				<polygon style="opacity:0.5;fill:#FFFFFF;" points="320.455,144.166 310.121,144.166 273.703,315.501 284.037,315.501 				"/>
				<polygon style="opacity:0.5;fill:#FFFFFF;" points="263.259,315.501 299.677,144.166 260.851,144.166 224.433,315.501 				"/>
			</g>
		</g>
	</g>
</g>
<g id="Icon">
	<g>
		<g>
			<g>
				<path style="fill:#407BFF;" d="M125.827,229.917c0,0.384,0.02,0.762,0.053,1.138l-2.23,1.239c0.168,1.072,0.45,2.106,0.83,3.092
					l2.547-0.042c0.322,0.693,0.705,1.351,1.14,1.97l-1.31,2.185c0.674,0.832,1.433,1.591,2.265,2.265l2.185-1.31
					c0.619,0.435,1.278,0.818,1.97,1.14l-0.042,2.547c0.986,0.379,2.02,0.662,3.092,0.829l1.239-2.23
					c0.375,0.033,0.754,0.053,1.138,0.053c0.384,0,0.762-0.02,1.138-0.053l1.239,2.23c1.072-0.168,2.106-0.45,3.092-0.829
					l-0.042-2.547c0.693-0.322,1.351-0.705,1.971-1.14l2.185,1.31c0.832-0.674,1.591-1.433,2.265-2.265l-1.31-2.185
					c0.436-0.619,0.818-1.278,1.14-1.97l2.547,0.042c0.379-0.986,0.661-2.02,0.829-3.092l-2.23-1.239
					c0.033-0.375,0.053-0.754,0.053-1.138c0-0.384-0.02-0.762-0.053-1.138l2.23-1.239c-0.168-1.072-0.45-2.106-0.829-3.092
					l-2.547,0.042c-0.322-0.693-0.705-1.351-1.14-1.97l1.31-2.185c-0.674-0.832-1.433-1.591-2.265-2.265l-2.185,1.31
					c-0.619-0.435-1.278-0.818-1.971-1.14l0.042-2.547c-0.986-0.379-2.02-0.662-3.092-0.829l-1.239,2.23
					c-0.375-0.033-0.754-0.053-1.138-0.053c-0.384,0-0.762,0.02-1.138,0.053l-1.239-2.23c-1.072,0.168-2.106,0.45-3.092,0.829
					l0.042,2.547c-0.693,0.323-1.351,0.705-1.97,1.14l-2.185-1.31c-0.832,0.674-1.591,1.433-2.265,2.265l1.31,2.185
					c-0.435,0.619-0.818,1.278-1.14,1.97l-2.547-0.042c-0.379,0.986-0.662,2.02-0.83,3.092l2.23,1.239
					C125.847,229.154,125.827,229.533,125.827,229.917z M138.608,224.113c3.205,0,5.803,2.598,5.803,5.803s-2.598,5.803-5.803,5.803
					s-5.803-2.598-5.803-5.803S135.403,224.113,138.608,224.113z"/>
			</g>
		</g>
		<g>
			<path style="fill:#407BFF;" d="M165.536,210.813c0.101-0.963,0.058-1.909-0.118-2.812l2.654-1.881l-1.25-2.81l-3.175,0.714
				c-1.126-1.488-2.68-2.645-4.503-3.276l-0.302-3.238l-3.059-0.322l-0.968,3.104c-1.915,0.237-3.678,1.045-5.089,2.265l-2.956-1.36
				l-1.809,2.488l2.204,2.392c-0.358,0.847-0.599,1.763-0.701,2.725c-0.102,0.965-0.056,1.909,0.117,2.814l-2.654,1.878l1.25,2.81
				l3.175-0.714c1.126,1.488,2.682,2.645,4.505,3.278l0.3,3.238l3.059,0.322l0.971-3.104c1.915-0.239,3.676-1.048,5.087-2.268
				l2.956,1.36l1.808-2.488l-2.204-2.39C165.194,212.692,165.434,211.778,165.536,210.813z M155.458,214.956
				c-2.737-0.288-4.721-2.742-4.432-5.479c0.288-2.737,2.74-4.723,5.477-4.435c2.737,0.288,4.723,2.742,4.435,5.479
				C160.648,213.259,158.195,215.245,155.458,214.956z"/>
		</g>
	</g>
</g>
<g id="Character">
	<g>
		<g>
			<g>
				<g>
					<g>
						<g>
							<g>
								<g>
									<g id="Character--inject-2_2_">
										<path style="fill:#FFC3BD;" d="M136.912,257.682c-0.53,0.39-0.96,0.67-1.42,1c-0.46,0.33-0.94,0.62-1.43,0.88
											c-0.98,0.55-1.99,1.03-3.03,1.45c-2.19,0.91-4.52,1.46-6.89,1.62c-2.71,0.19-5.42-0.34-7.87-1.52
											c-1.27-0.64-2.44-1.47-3.47-2.45c-0.92-0.88-1.76-1.83-2.52-2.84c-0.22-0.32-0.45-0.64-0.65-0.96
											c-2.28-3.36-4.12-7-5.5-10.81c-0.68-1.83-1.31-3.63-1.85-5.43c-0.07-0.19-0.12-0.38-0.18-0.57
											c-0.31-1.04-0.58-2.01-0.85-3.04c-0.27-1.03-0.49-2.01-0.73-3.14l9.69-2.15c0.2,0.79,0.47,1.76,0.71,2.67l0.78,2.76
											c0.56,1.82,1.12,3.64,1.74,5.42c0.62,1.78,1.28,3.53,2.03,5.18c0.67,1.59,1.48,3.13,2.41,4.59
											c0.4,0.62,0.85,1.22,1.33,1.78c0.39,0.44,0.83,0.83,1.31,1.17c1.1,0.74,2.37,1.2,3.7,1.33c1.65,0.19,3.32,0.16,4.97-0.09
											c0.91-0.13,1.8-0.29,2.7-0.49l1.34-0.32l1.28-0.34L136.912,257.682z"/>
										<path style="fill:#407BFF;" d="M97.063,227.675c4.684-5.956,11.799-3.772,15.792,5.708
											c2.217,5.049,0.586,7.189,3.705,12.812l-15.125,8.698C97.049,245.928,92.242,233.782,97.063,227.675z"/>
										<path style="opacity:0.3;enable-background:new    ;" d="M109.801,254.862h-0.17c-2.28-3.36-4.12-7-5.5-10.81
											c-0.68-1.83-1.31-3.63-1.85-5.43c0.67-0.91,1.29-1.3,1.75-0.99C107.112,239.742,115.482,242.622,109.801,254.862z"/>
										<path style="fill:#FFC3BD;" d="M135.26,251.206l3.221-1.756l1.122,7.188c0,0-5.374,3.236-6.918,0.56l0.165-1.855
											C133.032,253.684,133.908,252.181,135.26,251.206z"/>
										<polygon style="fill:#FFC3BD;" points="142.516,249.099 145.336,254.874 139.577,256.641 138.455,249.453 										"/>
										<g>
											<g>
												<path style="fill:#407BFF;" d="M109.562,232.072c-0.29,8.21-2.64,17.81-2.98,48.8l-35.2,4.3
													c-0.08-0.65-0.16-1.31-0.23-1.97c-0.01-0.06-0.02-0.12-0.02-0.17c0.49-1.31,3.49-10.39-2.1-24.81v-0.01
													c-0.07-2.4-0.07-4.66,0.02-6.69c0.05-1.17,0.1-2.36,0.17-3.57c0.35-6.93,0.97-14.35,1.97-19.84
													c0.5-2.74,2.5-4.93,5.09-5.72c0.5-0.16,1.02-0.26,1.55-0.31l8.63-0.76l2-0.18l8.53,1.2l7.44,2.43
													C107.581,225.782,109.682,228.762,109.562,232.072z"/>
											</g>
											<path style="fill:#263238;" d="M106.783,280.947c0.415-5.69,0.598-14.394,0.446-21.298
												c-0.06-2.69,0.788-5.365,2.55-7.398c0.34-0.392,0.617-0.796,0.845-1.284c0.646-1.381,0.619-2.973,0.107-4.409
												c-1.151-3.23-1.447-6.795-1.319-10.219c0.148-3.973-0.618-8.046-3.021-11.214c-1.899-0.772-6.318-1.948-6.318-2.027
												c2.191,2.852,1.885,10.434-3.255,16.383c-0.043,13.94-0.318,28.229-0.361,42.169
												C100.102,282.706,103.316,282.49,106.783,280.947z"/>
											<path style="fill:#263238;" d="M91.971,239.122c0.04,13.94-0.71,29.22-0.67,43.16c-3.49,1-18.83,0.93-20.15,0.92
												c-0.06,0-0.09,0-0.09,0s0.02-0.06,0.07-0.17c0.49-1.31,3.49-10.39-2.1-24.81v-0.01c-1.16-3.01-2.7-6.26-4.72-9.71
												c1.86,0.27,3.49,0.04,4.91-0.55c5.23-2.11,7.55-8.85,7.43-11.97c-0.12-3.45-0.983-11.957-1.033-13.997
												c-0.01-0.31,7.98-0.676,7.961-0.616C83.579,231.682,88.602,237.532,91.971,239.122z"/>
											<g>
												<g>
													<g>
														<g>
															<g>
																<g>
																	<polygon style="fill:#FFC3BD;" points="107.734,376.03 115.289,378.123 122.064,360.371 114.516,358.277 
																																			"/>
																	<path style="fill:#407BFF;" d="M119.292,376.003c-0.452-0.864-1.236-1.505-2.15-1.844l-7.432-2.754
																		c-0.342-0.142-0.736,0.004-0.903,0.335l-3.525,6.609c-0.412,0.753-0.136,1.697,0.616,2.109
																		c0.016,0.009,0.032,0.017,0.048,0.025c2.646,1.58,4.622,1.51,8.909,3.094c2.639,0.979,8.068,3.734,11.92,4.206
																		c3.852,0.472,4.464-3.316,2.901-3.859C124.112,382.091,120.306,377.942,119.292,376.003z"/>
																	<g style="opacity:0.2;">
																		<polygon points="122.064,360.377 118.459,369.821 111.016,367.43 114.51,358.278 																		"/>
																	</g>
																	<g>
																		<path style="fill:#263238;" d="M140.912,308.013c-0.252,2.749-0.792,5.522-1.525,8.319
																			c-1.993,7.707-5.402,15.559-8.224,23.218c-5.582,15.126-10.42,28.308-10.42,28.308l-10.36-3.578
																			c0,0,9.304-43.759,15.571-48.236h-38.44c-0.744,0-1.465-0.048-2.149-0.144c6.627-0.852,16.939-4.934,26.519-9.016
																			c8.464-3.613,16.375-7.203,20.673-8.596h0.012v0.012C137.791,300.486,141.32,303.595,140.912,308.013z"/>
																		<path style="opacity:0.1;" d="M140.912,308.013c-0.252,2.749-0.792,5.522-1.525,8.319
																			c-1.993,7.707-5.402,15.559-8.224,23.218c-5.582,15.126-10.42,28.308-10.42,28.308l-10.36-3.578
																			c0,0,9.304-43.759,15.571-48.236h-38.44c-0.744,0-1.465-0.048-2.149-0.144c6.627-0.852,16.939-4.934,26.519-9.016
																			c8.464-3.613,16.375-7.203,20.673-8.596h0.012v0.012C137.791,300.486,141.32,303.595,140.912,308.013z"/>
																		<path style="opacity:0.6;" d="M132.557,298.289c-4.298,1.393-12.209,4.982-20.673,8.596
																			c-9.58,4.082-19.892,8.164-26.519,9.016c-11.153-1.489-15.355-14.778-3.686-30.109
																			c7.575,0.012,15.187,7.251,15.187,7.251S119.771,292.91,132.557,298.289z"/>
																	</g>
																</g>
																<g>
																	<polygon style="fill:#FFC3BD;" points="160.385,360.765 168.842,360.765 159.982,339.546 154.246,349.288 
																																			"/>
																	<path style="fill:#407BFF;" d="M168.149,358.761l-9.927-2.254c-0.351-0.093-0.715,0.1-0.833,0.443l-2.768,7.634
																		c-0.235,0.808,0.23,1.653,1.038,1.888c0.016,0.005,0.031,0.009,0.047,0.013c3.48,0.727,5.191,0.902,9.556,1.893
																		c2.688,0.61,9.487,2.395,13.193,3.236c3.706,0.842,4.683-2.791,3.206-3.48c-6.619-3.064-10.208-5.994-12.131-8.491
																		C169.188,359.196,168.699,358.884,168.149,358.761z"/>
																	<g style="opacity:0.2;">
																		<polygon points="159.982,339.552 163.753,348.589 156.145,352.839 154.246,349.295 																		"/>
																	</g>
																	<g>
																		<g>
																			<path style="fill:#263238;" d="M163.866,345.373l-9.306,5.632c0,0-7.753-16.293-15.172-34.673
																				c0.732-2.797,1.272-5.57,1.525-8.319c0.408-4.418-3.122-7.527-8.344-9.712v-0.012h-0.012
																				c-4.298,1.393-12.209,4.982-20.673,8.596c-9.58,4.082-19.892,8.164-26.519,9.016
																				c-0.828,0.108-1.585,0.168-2.293,0.168c-12.725,0-17.119-11.153-11.981-30.085
																				c7.575-0.036,20.541-0.816,20.541-0.816s25.019-6.015,43.026-3.962c8.776,0.996,15.883,7.587,17.599,16.267
																				C156.831,320.462,163.866,345.373,163.866,345.373z"/>
																		</g>
																	</g>
																	<g>
																		<g>
																			<path style="fill:#263238;" d="M163.866,345.373l-9.306,5.632c0,0-7.753-16.293-15.172-34.673
																				c0.732-2.797,1.272-5.57,1.525-8.319c0.408-4.418-3.122-7.527-8.344-9.712v-0.012h-0.012
																				c-4.298,1.393-12.209,4.982-20.673,8.596c-9.58,4.082-19.892,8.164-26.519,9.016
																				c-0.828,0.108-1.585,0.168-2.293,0.168c-12.725,0-17.119-11.153-11.981-30.085
																				c7.575-0.036,20.541-0.816,20.541-0.816s25.019-6.015,43.026-3.962c8.776,0.996,15.883,7.587,17.599,16.267
																				C156.831,320.462,163.866,345.373,163.866,345.373z"/>
																		</g>
																	</g>
																</g>
															</g>
														</g>
													</g>
												</g>
												<path style="fill:#263238;" d="M71.057,283.202l-0.914,2.884c-0.121,0.222,0.135,0.457,0.511,0.471l35.453-2.125
													c0.296,0,0.538-0.128,0.565-0.316l0.377-2.898c0-0.202-0.222-0.377-0.538-0.39l-34.882,2.145
													C71.41,282.94,71.191,283.028,71.057,283.202z"/>
												<path style="opacity:0.1;" d="M71.057,283.202l-0.914,2.884c-0.121,0.222,0.135,0.457,0.511,0.471l35.453-2.125
													c0.296,0,0.538-0.128,0.565-0.316l0.377-2.898c0-0.202-0.222-0.377-0.538-0.39l-34.882,2.145
													C71.41,282.94,71.191,283.028,71.057,283.202z"/>
											</g>
										</g>
										<path style="opacity:0.3;enable-background:new    ;" d="M74.649,225.194c7.085-1.245,6.731,14.839,3.507,26.608
											c-0.933,3.406-4.964,1.981-6.328,1.093C67.363,249.988,65.853,230.332,74.649,225.194z"/>
										<g>
											<path style="fill:#FFC3BD;" d="M74.714,246.195c0,0-1.795,11.669,1.909,13.99c3.704,2.322,24.562,11.337,25.093,10.423
												c-1.062,1.679-2.088,3.114-3.15,4.793c0,0-27.001-5.986-30.622-8.911c-3.277-2.648-3.754-12.517-3.198-20.884
												C67.699,243.885,74.714,246.195,74.714,246.195z"/>
										</g>
										<path style="fill:#407BFF;" d="M71.901,222.355c7.285-2.136,10.04,3.695,7.823,13.7c-1.113,5.401-2.574,8.108-4.642,13.22
											l-10.769-0.776C59.965,231.504,64.451,224.545,71.901,222.355z"/>
										<path style="fill:#FFC3BD;" d="M89.901,207.317l3.854,4.45l5.239,6.059c-0.484,0.644-0.848,1.371-1.075,2.144
											c-0.554,1.705-0.389,3.394,1.453,4.643c0.802,0.374-1.982,9.557-4.321,10.983l-7.681-10.486
											c-0.966-1.296-1.217-1.992-0.224-3.404C89.995,217.715,90.217,211.923,89.901,207.317z"/>
										<path style="opacity:0.2;enable-background:new    ;" d="M97.734,216.326l-3.303-4.376
											c-0.04,0.131-0.084,0.27-0.132,0.417c-0.158,0.617-0.267,1.245-0.327,1.879c-0.201,2.167,1.836,4.95,3.824,6.14
											l0.153-0.436c0.231-0.725,0.56-1.416,0.977-2.053c0.027-0.036,0.06-0.067,0.097-0.092L97.734,216.326z"/>
										<path style="fill:#263238;" d="M110.868,220.261c1.52-1.3,3.542-3.382,3.276-5.364c-0.266-1.982-0.985-3.896-1.091-5.894
											c-0.17-3.215,10.714-10.071-6.315-23.63c-1.931-1.538-6.665-4.594-12.78-1.98c-2.27,0.97-15.816,12.832,3.594,14.352
											c3.08,0.241,5.59-2.571,8.664-2.878c0.542,0.275,1.149,0.738,1.691,1.013c0.493,0.25,0.993,0.506,1.392,0.889
											c0.398,0.383,0.686,0.919,0.641,1.47c-0.163,1.969-1.422,3.875-1.84,5.805c-0.946,0.634-1.049,2.376-0.919,3.507
											c0.13,1.131,0.612,2.187,0.936,3.279c0.324,1.092,0.48,2.314-0.022,3.336c-0.569,1.157-1.709,2.296-2.571,3.255
											c-0.565,0.629-0.271,1.986-0.05,2.803l5.556,4.068C110.433,223.025,109.804,221.171,110.868,220.261z"/>
										<path style="fill:#FFC3BD;" d="M90.261,199.123c-0.598,7.184-1.258,11.357,1.824,15.433
											c4.659,6.168,13.929,3.992,16.635-2.912c2.439-6.209,2.947-16.909-3.644-20.605c-4.833-2.673-10.917-0.921-13.589,3.911
											C90.778,196.235,90.359,197.659,90.261,199.123z"/>
										<path style="fill:#263238;" d="M89.207,205.482l3.07,1.328l0,0c1.06-0.431,1.266-1.68,1.196-2.823
											c-0.271-4.378,7.586-9.774,7.586-9.774s-8.326-3.157-10.865-3.157c-6.658-0.002-5.351,9.295-3.451,11.787
											C87.471,203.799,88.296,204.683,89.207,205.482z"/>
										<g>
											<g>
												<path style="fill:#263238;" d="M106.503,204.764c0.874-1.509,2.811-2.027,4.317-1.154s2.021,2.81,1.147,4.32
													c-0.874,1.509-2.811,2.027-4.317,1.154C106.143,208.21,105.628,206.273,106.503,204.764z M106.932,205.012
													c-0.737,1.272-0.303,2.906,0.967,3.641c1.27,0.736,2.902,0.299,3.639-0.973c0.737-1.272,0.303-2.906-0.967-3.641
													C109.301,203.303,107.669,203.74,106.932,205.012z"/>
											</g>
											<g>
												<path style="fill:#263238;" d="M99.268,202.639c0.874-1.509,2.811-2.027,4.317-1.154
													c1.507,0.873,2.021,2.81,1.147,4.319c-0.874,1.509-2.811,2.027-4.318,1.154
													C98.908,206.086,98.394,204.148,99.268,202.639z M99.697,202.888c-0.737,1.272-0.303,2.905,0.966,3.641
													c1.27,0.736,2.903,0.299,3.639-0.973c0.737-1.272,0.303-2.905-0.967-3.641
													C102.066,201.179,100.434,201.616,99.697,202.888z"/>
											</g>
											<g>
												<path style="fill:#263238;" d="M105.049,205.165c0.845-0.384,1.191,0.235,1.227,0.307l0.445-0.221
													c-0.193-0.394-0.832-1.013-1.877-0.538L105.049,205.165z"/>
											</g>
											<g>
												<polygon style="fill:#263238;" points="90.705,202.294 99.289,203.563 99.386,203.076 90.802,201.807 												"/>
											</g>
										</g>
										<path style="fill:#FFC3BD;" d="M86.57,204.184c0.149,1.604,0.881,3.098,2.056,4.199c1.537,1.4,3.408-0.131,3.627-2.167
											c0.185-1.82-0.73-4.48-2.585-5.092C87.814,200.511,86.394,202.185,86.57,204.184z"/>
										<g>
											<path style="fill:#263238;" d="M101.465,203.569c-0.109,0.587,0.107,1.138,0.494,1.219
												c0.387,0.081,0.741-0.319,0.889-0.904c0.148-0.585-0.106-1.138-0.495-1.227
												C101.965,202.569,101.573,202.974,101.465,203.569z"/>
											<path style="fill:#263238;" d="M108.128,205.572c-0.116,0.596,0.108,1.146,0.495,1.227
												c0.387,0.081,0.779-0.325,0.889-0.904c0.11-0.579-0.114-1.137-0.494-1.219
												C108.639,204.594,108.237,204.985,108.128,205.572z"/>
											<path style="fill:#263238;" d="M103.469,203.27c-0.402,0.064-0.827-0.023-1.171-0.24
												c0.034-0.102,0.012-0.232,0.046-0.334C102.734,202.838,103.078,203.127,103.469,203.27z"/>
											<path style="fill:#263238;" d="M110.126,205.245c-0.402,0.064-0.827-0.023-1.171-0.24
												c0.034-0.102,0.012-0.232,0.046-0.334C109.392,204.813,109.735,205.102,110.126,205.245z"/>
										</g>
										<path style="fill:#ED847E;" d="M105.773,205.808c0.202,1.688,0.626,3.341,1.26,4.918
											c-1.076,0.569-2.455-0.241-2.455-0.241L105.773,205.808z"/>
										<path style="fill:#263238;" d="M102.585,212.39c-1.329-0.465-2.408-1.455-2.986-2.738
											c-0.036-0.091,0.007-0.194,0.098-0.231c0.093-0.031,0.194,0.015,0.231,0.105c0.65,1.388,1.909,2.395,3.406,2.723
											c0.098,0.015,0.165,0.105,0.15,0.203c-0.014,0.098-0.105,0.165-0.203,0.15c-0.008-0.001-0.016-0.003-0.024-0.005
											C103.029,212.542,102.805,212.473,102.585,212.39z"/>
										<path style="fill:#263238;" d="M100.126,201.06c-0.057-0.018-0.108-0.052-0.146-0.098c-0.125-0.15-0.106-0.373,0.042-0.5
											c0.841-0.749,2-1.029,3.09-0.746c0.185,0.054,0.291,0.248,0.237,0.434c-0.001,0.004-0.003,0.008-0.004,0.013
											c-0.063,0.185-0.262,0.285-0.448,0.225c-0.857-0.205-1.761,0.023-2.419,0.609
											C100.383,201.085,100.246,201.109,100.126,201.06z"/>
										<path style="fill:#263238;" d="M108.414,201.071c-0.022-0.056-0.031-0.117-0.024-0.177
											c0.054-0.188,0.248-0.298,0.437-0.247c1.096,0.263,1.987,1.059,2.371,2.118c0.057,0.185-0.046,0.382-0.231,0.439
											c-0.185,0.057-0.381-0.046-0.439-0.231c-0.319-0.825-1.023-1.439-1.884-1.643
											C108.529,201.289,108.441,201.191,108.414,201.071z"/>
									</g>
									<g>
										<g>
											<g>
												<g>
													<g>
														<path style="fill:#263238;" d="M113.808,281.718l45.332,0.132c1.6,0.005,3.027-1.3,3.172-2.899l2.075-22.949
															c0.145-1.599-1.046-2.912-2.645-2.916l-45.332-0.132c-1.6-0.005-3.027,1.3-3.172,2.899l-2.075,22.948
															C111.017,280.401,112.208,281.713,113.808,281.718z"/>
													</g>
													<g>
														<path style="fill:#263238;" d="M115.141,281.623l45.332,0.132c1.6,0.005,3.027-1.3,3.171-2.899l2.075-22.949
															c0.145-1.599-1.046-2.912-2.646-2.916l-45.332-0.132c-1.6-0.005-3.027,1.3-3.172,2.899l-2.075,22.949
															C112.351,280.306,113.541,281.618,115.141,281.623z"/>
														<path style="opacity:0.4;fill:#FFFFFF;" d="M115.141,281.623l45.332,0.132c1.6,0.005,3.027-1.3,3.171-2.899
															l2.075-22.949c0.145-1.599-1.046-2.912-2.646-2.916l-45.332-0.132c-1.6-0.005-3.027,1.3-3.172,2.899l-2.075,22.949
															C112.351,280.306,113.541,281.618,115.141,281.623z"/>
													</g>
												</g>
											</g>
										</g>
										<g>
											<path style="fill:#263238;" d="M161.098,281.726c0,1.372-0.816,2.489-1.808,2.489c-0.01,0-0.01,0-0.021,0l-46.788-0.184
												c-0.506,0-0.919-0.566-0.919-1.245c0.01-0.693,0.413-1.259,0.919-1.259L161.098,281.726z"/>
											<path style="opacity:0.3;fill:#FFFFFF;" d="M161.098,281.726c0,1.372-0.816,2.489-1.808,2.489c-0.01,0-0.01,0-0.021,0
												l-46.788-0.184c-0.506,0-0.919-0.566-0.919-1.245c0.01-0.693,0.413-1.259,0.919-1.259L161.098,281.726z"/>
										</g>
										<path style="fill:#263238;" d="M112.237,284.036H89.719c-1.199,0-2.171-0.972-2.171-2.171l0,0
											c0-0.187,0.151-0.338,0.338-0.338h24.351c0.693,0,1.254,0.562,1.254,1.254l0,0
											C113.492,283.475,112.93,284.036,112.237,284.036z"/>
										<path style="opacity:0.2;fill:#FFFFFF;" d="M112.237,284.036H89.719c-1.199,0-2.171-0.972-2.171-2.171l0,0
											c0-0.187,0.151-0.338,0.338-0.338h24.351c0.693,0,1.254,0.562,1.254,1.254l0,0
											C113.492,283.475,112.93,284.036,112.237,284.036z"/>
									</g>
									<g>
										<path style="fill:#FFC3BD;" d="M104.745,271.355l3.204,2.22l-7.367,5.528c0,0-6.598-5.1-4.015-7.852l2.225-0.456
											C100.703,270.386,103.054,270.085,104.745,271.355z"/>
										<polygon style="fill:#FFC3BD;" points="109.49,279.533 103.635,281.155 99.587,278.422 107.949,273.575 										"/>
									</g>
								</g>
							</g>
						</g>
					</g>
				</g>
			</g>
			<path style="fill:#263238;" d="M92.244,191.423c0.625,0.939,6.284,2.89,7.83,3.516c1.41-1.194,3.733-0.291,3.994,1.438
				c0.22,1.459,1.97,2.246,3.345,2.781c0.595,0.232,1.222,0.38,1.8,0.652c0.578,0.272,1.122,0.696,1.351,1.292
				c0.811-4.534-1.51-9.577-5.562-11.768C100.95,187.142,95.594,188.262,92.244,191.423z"/>
		</g>
	</g>
</g>
<g id="Device_2">
	<g>
		<g>
			<g>
				<path style="fill:#263238;" d="M437.964,165.05h-21.838l-22.022,251.715h21.838c10.122,0,19.046-8.206,19.931-18.328
					l18.815-215.059C455.574,173.256,448.086,165.05,437.964,165.05z"/>
			</g>
			<path style="fill:#407BFF;" d="M411.471,416.765h-89.978c-10.122,0-17.61-8.206-16.725-18.328l18.815-215.059
				c0.885-10.122,9.809-18.328,19.931-18.328h89.978c10.122,0,17.61,8.206,16.724,18.328l-18.815,215.059
				C430.517,408.559,421.593,416.765,411.471,416.765z"/>
			<g>
				<path style="fill:#407BFF;" d="M433.125,169.255h-23.387c-1.532,0-2.924,1.139-3.251,2.658l-0.158,0.733
					c-0.798,3.711-4.199,6.491-7.94,6.491h-22.234c-3.741,0-6.655-2.78-6.804-6.491l-0.029-0.733
					c-0.061-1.519-1.254-2.658-2.786-2.658h-23.387c-7.8,0-14.676,6.323-15.359,14.123l-18.815,215.059
					c-0.682,7.8,5.087,14.123,12.887,14.123h89.978c7.8,0,14.676-6.323,15.359-14.123l18.815-215.059
					C446.695,175.578,440.925,169.255,433.125,169.255z"/>
				<path style="opacity:0.7;fill:#FFFFFF;" d="M433.125,169.255h-23.387c-1.532,0-2.924,1.139-3.251,2.658l-0.158,0.733
					c-0.798,3.711-4.199,6.491-7.94,6.491h-22.234c-3.741,0-6.655-2.78-6.804-6.491l-0.029-0.733
					c-0.061-1.519-1.254-2.658-2.786-2.658h-23.387c-7.8,0-14.676,6.323-15.359,14.123l-18.815,215.059
					c-0.682,7.8,5.087,14.123,12.887,14.123h89.978c7.8,0,14.676-6.323,15.359-14.123l18.815-215.059
					C446.695,175.578,440.925,169.255,433.125,169.255z"/>
			</g>
			<g style="opacity:0.2;">
				<path d="M382.485,171.638c-0.086,0.987-0.957,1.787-1.944,1.787c-0.987,0-1.717-0.8-1.631-1.787
					c0.086-0.987,0.956-1.787,1.943-1.787S382.572,170.651,382.485,171.638z"/>
				<path d="M395.313,169.851c-0.706,0-5.421,0-6.128,0c-0.987,0-1.857,0.8-1.943,1.787c-0.086,0.987,0.644,1.787,1.631,1.787
					c0.613,0,5.514,0,6.128,0c0.987,0,1.857-0.8,1.944-1.787C397.03,170.651,396.3,169.851,395.313,169.851z"/>
			</g>
			<g>
				<polygon style="fill:#407BFF;" points="337.956,179.101 339.848,179.101 340.014,177.209 338.121,177.209 				"/>
				<polygon style="fill:#407BFF;" points="341.906,177.209 341.74,179.101 343.633,179.101 343.798,177.209 343.964,175.317 
					342.072,175.317 				"/>
				<polygon style="fill:#407BFF;" points="346.021,173.425 345.856,175.317 345.69,177.209 345.525,179.101 347.417,179.101 
					347.583,177.209 347.748,175.317 347.914,173.425 				"/>
			</g>
			<path style="fill:#407BFF;" d="M427.382,173.55l-0.12,1.39h-0.93l-0.24,2.77h0.93l-0.13,1.39h8.33l0.49-5.55H427.382z
				 M430.721,177.71h-2.78l0.24-2.77h2.78L430.721,177.71z"/>
			<g style="opacity:0.4;">
				<path style="fill:#FFFFFF;" d="M376.22,179.136l-62.112,230.958c2.133,1.554,4.795,2.466,7.753,2.466h4.856l62.775-233.423
					H376.22z"/>
				<path style="fill:#FFFFFF;" d="M433.125,169.255h-23.387c-1.532,0-2.924,1.139-3.251,2.658l-0.158,0.733
					c-0.778,3.615-4.027,6.339-7.653,6.478L335.897,412.56h47.883l62.234-231.413C445.532,174.41,440.164,169.255,433.125,169.255z"
					/>
			</g>
		</g>
		<g>
			<g style="opacity:0.2;">
				<g>
					<path d="M343.952,213.01h-0.704c-1.922,0-3.432-1.647-3.264-3.562l0.064-0.729c0.148-1.693,1.565-2.991,3.264-2.991h0.704
						c1.922,0,3.432,1.647,3.264,3.562l-0.064,0.73C347.068,211.711,345.651,213.01,343.952,213.01z"/>
					<path d="M342.302,231.865h-0.704c-1.922,0-3.432-1.647-3.264-3.562l0.064-0.73c0.148-1.693,1.565-2.991,3.264-2.991h0.705
						c1.922,0,3.432,1.647,3.264,3.562l-0.064,0.729C345.419,230.566,344.001,231.865,342.302,231.865z"/>
					<path d="M340.653,250.72h-0.704c-1.922,0-3.432-1.647-3.264-3.562l0.064-0.73c0.148-1.693,1.565-2.991,3.264-2.991h0.704
						c1.922,0,3.432,1.647,3.264,3.562l-0.064,0.73C343.769,249.421,342.352,250.72,340.653,250.72z"/>
					<path d="M339.098,268.492h-0.705c-1.922,0-3.432-1.647-3.264-3.562l0.064-0.73c0.148-1.693,1.565-2.991,3.264-2.991h0.704
						c1.922,0,3.432,1.647,3.264,3.562l-0.064,0.73C342.214,267.193,340.797,268.492,339.098,268.492z"/>
					<path d="M337.448,287.347h-0.704c-1.922,0-3.432-1.647-3.264-3.562l0.064-0.73c0.148-1.693,1.565-2.991,3.264-2.991h0.704
						c1.922,0,3.432,1.647,3.264,3.562l-0.064,0.73C340.565,286.048,339.147,287.347,337.448,287.347z"/>
					<path d="M335.799,306.202h-0.704c-1.922,0-3.432-1.647-3.264-3.562l0.064-0.73c0.148-1.693,1.565-2.991,3.264-2.991h0.704
						c1.922,0,3.432,1.647,3.264,3.562l-0.064,0.73C338.915,304.903,337.498,306.202,335.799,306.202z"/>
				</g>
				<g>
					<polygon points="383.308,208.466 354.274,208.466 354.465,206.284 383.499,206.284 					"/>
				</g>
				<g>
					<polygon points="369.729,227.37 359.387,227.37 359.578,225.188 369.92,225.188 					"/>
				</g>
				<g>
					<polygon points="412.886,248.576 402.544,248.576 402.735,246.395 413.077,246.395 					"/>
				</g>
				<g>
					<polygon points="366.401,265.408 356.059,265.408 356.25,263.226 366.592,263.226 					"/>
				</g>
				<g>
					<polygon points="381.316,265.408 370.974,265.408 371.164,263.226 381.507,263.226 					"/>
				</g>
				<g>
					<polygon points="398.873,248.576 372.446,248.576 372.637,246.395 399.064,246.395 					"/>
				</g>
				<g>
					<polygon points="403.767,265.408 386.368,265.408 386.559,263.226 403.957,263.226 					"/>
				</g>
				<g>
					<polygon points="393.113,305.833 382.771,305.833 382.962,303.651 393.304,303.651 					"/>
				</g>
				<g>
					<polygon points="408.026,305.833 397.684,305.833 397.875,303.651 408.217,303.651 					"/>
				</g>
				<g>
					<polygon points="418.858,305.833 413.08,305.833 413.271,303.651 419.049,303.651 					"/>
				</g>
				<g>
					<polygon points="407.095,227.37 374.913,227.37 375.104,225.188 407.285,225.188 					"/>
				</g>
				<g>
					<polygon points="379.593,285.1 369.251,285.1 369.441,282.918 379.784,282.918 					"/>
				</g>
				<g>
					<polygon points="389.027,285.1 383.049,285.1 383.24,282.918 389.218,282.918 					"/>
				</g>
				<g>
					<polygon points="410.487,285.1 393.6,285.1 393.791,282.918 410.678,282.918 					"/>
				</g>
			</g>
			<g style="opacity:0.2;">
				<g>
					<path d="M334.311,324.606h-0.704c-1.922,0-3.432-1.647-3.264-3.562l0.064-0.73c0.148-1.693,1.565-2.991,3.264-2.991h0.704
						c1.922,0,3.432,1.647,3.264,3.562l-0.064,0.73C337.427,323.307,336.01,324.606,334.311,324.606z"/>
					<path d="M332.661,343.461h-0.704c-1.922,0-3.432-1.647-3.264-3.562l0.064-0.73c0.148-1.693,1.565-2.991,3.264-2.991h0.704
						c1.922,0,3.432,1.647,3.264,3.562l-0.064,0.73C335.778,342.163,334.36,343.461,332.661,343.461z"/>
					<path d="M331.012,362.316h-0.704c-1.922,0-3.432-1.647-3.264-3.562l0.064-0.73c0.148-1.693,1.565-2.991,3.264-2.991h0.704
						c1.922,0,3.432,1.647,3.264,3.562l-0.064,0.73C334.128,361.018,332.711,362.316,331.012,362.316z"/>
					<path d="M329.457,380.088h-0.704c-1.922,0-3.432-1.647-3.264-3.562l0.064-0.73c0.148-1.693,1.565-2.991,3.264-2.991h0.704
						c1.922,0,3.432,1.647,3.264,3.562l-0.064,0.73C332.573,378.789,331.156,380.088,329.457,380.088z"/>
				</g>
				<g>
					<polygon points="373.667,320.062 344.633,320.062 344.823,317.88 373.858,317.88 					"/>
				</g>
				<g>
					<polygon points="360.088,338.966 349.746,338.966 349.937,336.784 360.279,336.784 					"/>
				</g>
				<g>
					<polygon points="403.245,360.173 392.903,360.173 393.094,357.991 403.436,357.991 					"/>
				</g>
				<g>
					<polygon points="356.76,377.004 346.418,377.004 346.609,374.822 356.951,374.822 					"/>
				</g>
				<g>
					<polygon points="371.674,377.004 361.332,377.004 361.523,374.822 371.865,374.822 					"/>
				</g>
				<g>
					<polygon points="389.232,360.173 362.805,360.173 362.996,357.991 389.422,357.991 					"/>
				</g>
				<g>
					<polygon points="424.469,336.782 420.962,336.782 417.667,336.782 403.661,336.782 403.473,338.964 417.471,338.964 
						420.766,338.964 424.273,338.964 					"/>
				</g>
				<g>
					<polygon points="394.125,377.004 376.727,377.004 376.917,374.822 394.316,374.822 					"/>
				</g>
				<g>
					<polygon points="397.453,338.966 365.272,338.966 365.463,336.784 397.644,336.784 					"/>
				</g>
				<g>
					<polygon points="394.61,320.062 384.267,320.062 384.458,317.88 394.801,317.88 					"/>
				</g>
				<g>
					<polygon points="426.125,317.881 422.618,317.881 419.315,317.881 399.982,317.881 399.793,320.062 419.126,320.062 
						422.422,320.062 425.929,320.062 					"/>
				</g>
			</g>
		</g>
	</g>
</g>
</svg>
